# xmcd CD database file
#
# Track frame offsets:
#	150
#	11770
#	25183
#	37948
#	51018
#	68398
#	102768
#	124333
#	138748
#	153180
#	171973
#	181273
#	196240
#
# Disc length: 2767 seconds
#
# Revision: 0
# Processed by: cddbd v1.5.1PL2 Copyright (c) Steve Scherf et al.
# Submitted via: CDex 1.40Release
#
DISCID=a30acd0d
DTITLE=Juke Joints - Tin House
DYEAR=1900
DGENRE=Blues
TTITLE0=Betty Lee
TTITLE1=I'm working on it
TTITLE2=Long long dirty trail
TTITLE3=Please come home
TTITLE4=Jealous Man
TTITLE5=What in the world
TTITLE6=Polk salad Anne
TTITLE7=Sneakin Sally
TTITLE8=Black cat
TTITLE9=Movin up on class
TTITLE10=Blind Willie's Boogie
TTITLE11=Don't mess with the Voodoo
TTITLE12=Tin House Boogie
EXTD=ID3G: 0
EXTT0=
EXTT1=
EXTT2=
EXTT3=
EXTT4=
EXTT5=
EXTT6=
EXTT7=
EXTT8=
EXTT9=
EXTT10=
EXTT11=
EXTT12=
PLAYORDER=
